<svg width="96" height="34" viewBox="0 0 96 34" fill="none" xmlns="http://www.w3.org/2000/svg">
<g clip-path="url(#clip0_13320_102167)">
<path d="M47.3372 15.2021L51.6556 4.36026L14.9902 0L0 34L35.3624 23.3931L32.5902 32.588L88.8531 34L95.5378 0L47.3372 15.2021Z" fill="#EF3124"/>
<path d="M19.6894 23.7671L16.8185 24.6669L16.535 22.709L13.6278 23.4968L13.173 25.7646L9.80762 26.7896L14.1058 8.20607L17.1481 8.06104L19.6927 23.7671H19.6894ZM16.1065 19.8117L15.4143 13.7765L15.322 13.7864L14.2508 20.2369L16.1065 19.815V19.8117Z" fill="white"/>
<path d="M21.6769 16.6636L22.2932 7.7344L28.1801 7.37842L27.9164 21.3375L25.4509 22.0792L25.7113 10.0911L24.6335 10.2032L24.3039 16.3999C24.1951 18.4139 23.971 19.9828 23.5787 21.1464C23.0711 22.6494 21.6274 23.6349 20.042 23.6415L20.0717 20.764L20.4573 20.7442C21.2616 20.5366 21.4692 19.7719 21.6802 16.6636H21.6769Z" fill="white"/>
<path d="M34.6511 14.9694C34.6182 17.8832 33.6261 19.6203 31.9747 20.118L29.1104 20.9783L29.351 7.30921L31.5066 7.18066L31.4473 11.1031L32.1065 11.0174C33.7381 10.8031 34.6841 12.0985 34.6511 14.976V14.9694ZM32.624 15.4078C32.6405 14.1586 32.4361 13.2587 31.6912 13.3906L31.4111 13.44L31.3418 17.9656L31.6253 17.8931C32.3768 17.6986 32.6108 16.6636 32.6273 15.4078H32.624Z" fill="white"/>
<path d="M39.4064 6.46521L39.3932 8.25501L39.703 8.22534C40.8567 8.11657 41.7631 9.26692 41.7532 11.7522C41.7433 14.2375 40.8171 15.7735 39.6536 16.08L39.3405 16.1624L39.3273 18.1533L37.7155 18.6444L37.732 16.5843L37.3925 16.6733C36.0312 17.0293 34.8742 15.7834 34.9039 12.9652C34.9368 10.0942 36.1169 8.55825 37.4518 8.433L37.7979 8.40004L37.8144 6.55091L39.4031 6.46191L39.4064 6.46521ZM37.554 14.544L37.755 14.5012L37.788 10.4272L37.5902 10.4535C36.9607 10.5392 36.7794 11.5215 36.7695 12.6356C36.7596 13.753 36.9343 14.6792 37.5573 14.544H37.554ZM40.2733 12.0159C40.2799 10.9809 40.1249 10.1107 39.5679 10.1865L39.3833 10.2129L39.3569 14.1518L39.5415 14.1122C40.0887 13.9903 40.2667 13.0575 40.27 12.0192L40.2733 12.0159Z" fill="white"/>
<path d="M45.244 16.1325L44.0838 16.4819L43.9585 15.2821L42.9104 15.5656L42.7719 16.8741L41.5557 17.24L42.8609 6.49134L44.1135 6.41553L45.244 16.1292V16.1325ZM43.7674 13.5121L43.4378 9.45126H43.4048L43.095 13.6637L43.7641 13.5121H43.7674Z" fill="white"/>
<path d="M39.4067 30.9387L37.874 31.0508V21.3107L40.7186 20.457V22.2304L39.0211 22.649V24.3728L39.4067 24.2904C40.4153 24.0795 41.0449 25.154 41.0449 27.3459C41.0449 29.4159 40.4153 30.8662 39.4067 30.9387ZM39.1628 26.1462L39.0178 26.1725V29.2148L39.1628 29.1984C39.5913 29.1522 39.7528 28.2359 39.7528 27.5734C39.7528 26.9702 39.5913 26.0703 39.1628 26.1462Z" fill="white"/>
<path d="M42.3931 31.0244L41.8888 31.0574L41.9152 28.8786L42.314 28.8358C42.5514 28.8094 42.6404 28.46 42.6832 28.0183L41.3252 20.2625L42.6338 19.8802L43.2732 25.0749L43.3391 25.065L44.0017 19.4682L45.4256 19.043L44.4499 25.889C43.8599 30.2564 43.5369 30.9453 42.3898 31.0211L42.3931 31.0244Z" fill="white"/>
<path d="M45.7676 28.4809C45.906 27.9831 45.9621 27.0174 46.0082 25.5176L46.2093 18.8133L49.835 17.7256L49.8284 28.0095L50.369 27.9469L50.3624 31.6814L48.7308 31.7605V30.1883L46.9179 30.3267V31.8462L45.4775 31.9154L45.4841 28.5138L45.7676 28.4809ZM48.2067 28.1974V20.3493L47.5178 20.5273L47.3992 25.4979C47.3794 26.6746 47.3102 27.5876 47.175 28.3161L48.2067 28.1974Z" fill="white"/>
<path d="M52.0207 30.2693L51.3582 30.3188V27.7939L51.8856 27.7313C52.1987 27.695 52.3141 27.2731 52.3734 26.7425L50.5869 17.4869L52.2976 16.9727L53.1942 22.5201H53.2469L54.1105 16.4454L56.0453 15.8652L54.7236 24.1253C53.9358 29.4024 53.5402 30.1606 52.0207 30.2693Z" fill="white"/>
<path d="M62.4697 13.9366V26.5179L63.9167 26.3498V13.5015L66.6426 12.6841V26.0565L67.5787 25.9477V30.9479L64.8198 31.0798V28.934L56.5762 29.5669V15.7066L58.7483 15.054V26.9497L60.0404 26.7981V14.6618L62.4664 13.9333L62.4697 13.9366Z" fill="white"/>
<path d="M75.9108 13.1659L71.8104 14.2338V17.8101L75.4065 17.0388V20.2855L71.8104 20.9118V25.4044L76.0954 24.9034L76.0591 28.038L68.6758 28.605L68.712 12.0617L75.9108 9.89941V13.1659Z" fill="white"/>
<path d="M86.6105 10.3777L81.4026 11.7357V15.7504L85.9645 14.7714V18.44L81.4026 19.2377V24.2841L86.8478 23.6479L86.8346 27.188L77.5 27.9065L77.5132 9.41853L86.6138 6.68604V10.381L86.6105 10.3777Z" fill="white"/>
</g>
<defs>
<clipPath id="clip0_13320_102167">
<rect width="96" height="34" fill="white"/>
</clipPath>
</defs>
</svg>
